<svg width="424" height="279" viewBox="0 0 424 279" fill="none" xmlns="http://www.w3.org/2000/svg">
<g clip-path="url(#clip0_298_853)">
<g clip-path="url(#clip1_298_853)">
<path d="M243.19 32.69C245.037 32.69 246.534 31.1946 246.534 29.35C246.534 27.5054 245.037 26.01 243.19 26.01C241.343 26.01 239.846 27.5054 239.846 29.35C239.846 31.1946 241.343 32.69 243.19 32.69Z" stroke="#1D3557" stroke-width="2" stroke-linecap="round" stroke-linejoin="round"/>
<path d="M259.189 57.0259C265.021 53.6625 262.586 38.5439 253.75 23.2577C244.914 7.97146 233.023 -1.69389 227.19 1.66952C221.357 5.03294 223.792 20.1515 232.628 35.4377C241.464 50.7239 253.356 60.3893 259.189 57.0259Z" stroke="#1D3557" stroke-width="2" stroke-linecap="round" stroke-linejoin="round"/>
<path d="M253.759 35.4408C262.595 20.1546 265.03 5.03604 259.197 1.67262C253.365 -1.69079 241.473 7.97456 232.637 23.2608C223.801 38.547 221.366 53.6656 227.198 57.029C233.031 60.3924 244.923 50.727 253.759 35.4408Z" stroke="#1D3557" stroke-width="2" stroke-linecap="round" stroke-linejoin="round"/>
<path d="M243.19 41.5299C260.862 41.5299 275.189 36.0767 275.189 29.3499C275.189 22.6231 260.862 17.1699 243.19 17.1699C225.518 17.1699 211.191 22.6231 211.191 29.3499C211.191 36.0767 225.518 41.5299 243.19 41.5299Z" stroke="#1D3557" stroke-width="2" stroke-linecap="round" stroke-linejoin="round"/>
</g>
<g clip-path="url(#clip2_298_853)">
<path d="M243.19 179.69C245.037 179.69 246.534 178.195 246.534 176.35C246.534 174.505 245.037 173.01 243.19 173.01C241.343 173.01 239.846 174.505 239.846 176.35C239.846 178.195 241.343 179.69 243.19 179.69Z" stroke="#E53945" stroke-width="2" stroke-linecap="round" stroke-linejoin="round"/>
<path d="M259.189 204.026C265.021 200.662 262.586 185.544 253.75 170.258C244.914 154.971 233.023 145.306 227.19 148.67C221.357 152.033 223.792 167.151 232.628 182.438C241.464 197.724 253.356 207.389 259.189 204.026Z" stroke="#E53945" stroke-width="2" stroke-linecap="round" stroke-linejoin="round"/>
<path d="M253.759 182.441C262.595 167.155 265.03 152.036 259.197 148.673C253.365 145.309 241.473 154.975 232.637 170.261C223.801 185.547 221.366 200.666 227.198 204.029C233.031 207.392 244.923 197.727 253.759 182.441Z" stroke="#E53945" stroke-width="2" stroke-linecap="round" stroke-linejoin="round"/>
<path d="M243.19 188.53C260.862 188.53 275.189 183.077 275.189 176.35C275.189 169.623 260.862 164.17 243.19 164.17C225.518 164.17 211.191 169.623 211.191 176.35C211.191 183.077 225.518 188.53 243.19 188.53Z" stroke="#E53945" stroke-width="2" stroke-linecap="round" stroke-linejoin="round"/>
</g>
<g clip-path="url(#clip3_298_853)">
<path d="M345.8 32.51H315.03C313.462 32.51 312.19 33.7815 312.19 35.35V54.86C312.19 56.4285 313.462 57.7 315.03 57.7H345.8C347.368 57.7 348.64 56.4285 348.64 54.86V35.35C348.64 33.7815 347.368 32.51 345.8 32.51Z" stroke="#1D3557" stroke-width="2" stroke-linecap="round" stroke-linejoin="round"/>
<path d="M321.923 37.5691C320.693 37.5691 319.766 37.8646 319.143 38.4556C318.52 39.0466 318.209 39.7175 318.209 40.4682C318.209 41.2508 318.48 41.9057 319.024 42.4328C319.583 42.9599 320.429 43.4391 321.563 43.8704C322.122 44.078 322.554 44.3336 322.857 44.6371C323.16 44.9405 323.312 45.276 323.312 45.6433C323.312 45.9468 323.2 46.2104 322.977 46.434C322.769 46.6576 322.458 46.7694 322.042 46.7694C321.595 46.7694 321.236 46.6336 320.964 46.3621C320.709 46.0746 320.581 45.6833 320.581 45.1881H318.089C318.169 46.2423 318.536 47.0729 319.191 47.6799C319.846 48.2868 320.805 48.5903 322.066 48.5903C323.296 48.5903 324.239 48.2948 324.894 47.7038C325.564 47.1288 325.9 46.426 325.9 45.5954C325.9 44.7489 325.596 44.0301 324.989 43.4391C324.382 42.8321 323.536 42.353 322.45 42.0016C321.907 41.8259 321.491 41.6022 321.204 41.3307C320.932 41.0592 320.797 40.7477 320.797 40.3963C320.797 40.1088 320.9 39.8692 321.108 39.6775C321.332 39.4859 321.595 39.39 321.899 39.39C322.25 39.39 322.546 39.5258 322.785 39.7973C323.041 40.0529 323.168 40.3723 323.168 40.7557H325.66C325.66 39.9091 325.333 39.1664 324.678 38.5275C324.039 37.8886 323.121 37.5691 321.923 37.5691ZM331.961 37.5691C330.364 37.5691 329.142 38.1362 328.296 39.2702C327.465 40.4043 327.05 41.6901 327.05 43.1276C327.05 44.7569 327.505 46.0746 328.416 47.0809C329.326 48.0872 330.492 48.5903 331.914 48.5903C332.505 48.5903 333.032 48.5024 333.495 48.3267C333.974 48.151 334.373 47.9115 334.693 47.608L336.106 48.8538L337.496 47.5361L335.891 46.0506C336.114 45.6992 336.298 45.252 336.442 44.7089C336.602 44.1499 336.681 43.5589 336.681 42.936C336.681 41.5144 336.282 40.2685 335.483 39.1984C334.701 38.1122 333.527 37.5691 331.961 37.5691ZM331.914 39.39C332.584 39.39 333.111 39.7494 333.495 40.4682C333.894 41.171 334.094 41.9936 334.094 42.936C334.094 43.2235 334.086 43.503 334.07 43.7745C334.054 44.0301 334.006 44.2697 333.926 44.4933L333.255 43.8224L331.937 45.1881L333.183 46.3381C333.056 46.45 332.88 46.5538 332.656 46.6496C332.433 46.7295 332.185 46.7694 331.914 46.7694C331.307 46.7694 330.771 46.434 330.308 45.7631C329.861 45.0763 329.637 44.1738 329.637 43.0558C329.637 41.9057 329.845 41.0113 330.26 40.3723C330.692 39.7175 331.243 39.39 331.914 39.39ZM338.598 37.7129V46.5777C338.598 47.1208 338.806 47.568 339.221 47.9194C339.636 48.2708 340.116 48.4465 340.659 48.4465H345.187V46.7215H341.09V37.7129H338.598Z" fill="#1D3557"/>
<path d="M293.37 21.92C293.34 21.86 293.31 21.79 293.29 21.73M294.11 36.61C294.18 36.68 294.25 36.74 294.32 36.81M295.54 37.69C295.68 37.77 295.83 37.86 295.98 37.94M345.8 32.51H333.42V7.44C333.42 3.88 324.4 1 313.26 1C302.12 1 293.11 3.88 293.11 7.44V48.92H293.21C294.14 52.07 302.2 54.56 312.19 54.73V54.86C312.19 56.42 313.47 57.7 315.03 57.7H345.81C347.37 57.7 348.65 56.42 348.65 54.86V35.34C348.65 33.78 347.37 32.5 345.81 32.5L345.8 32.51ZM330.31 24.36C326.75 26.17 320.46 27.38 313.27 27.38C306.08 27.38 299.79 26.17 296.23 24.36C299.8 26.16 306.09 27.36 313.27 27.36C320.45 27.36 326.74 26.16 330.31 24.36ZM330.4 24.32C330.67 24.18 330.92 24.04 331.15 23.89C330.91 24.04 330.66 24.18 330.4 24.32ZM331.36 23.77C331.55 23.65 331.72 23.52 331.89 23.39C331.73 23.52 331.55 23.64 331.36 23.77ZM332.15 23.18C332.27 23.07 332.39 22.97 332.49 22.86C332.38 22.97 332.27 23.07 332.15 23.18ZM332.76 22.56C332.83 22.47 332.9 22.39 332.95 22.3C332.89 22.39 332.82 22.47 332.76 22.56ZM333.18 21.91C333.21 21.85 333.24 21.78 333.26 21.72C333.24 21.78 333.2 21.85 333.18 21.91ZM296.15 24.33C295.88 24.19 295.63 24.05 295.4 23.9C295.64 24.05 295.88 24.19 296.15 24.33ZM295.19 23.78C295 23.66 294.82 23.53 294.66 23.4C294.83 23.53 295 23.65 295.19 23.78ZM294.4 23.19C294.28 23.08 294.16 22.98 294.06 22.87C294.17 22.98 294.28 23.09 294.4 23.19ZM293.79 22.57C293.72 22.48 293.65 22.4 293.6 22.31C293.66 22.4 293.72 22.48 293.79 22.57ZM293.74 36.2C293.7 36.15 293.65 36.09 293.62 36.04C293.66 36.1 293.7 36.15 293.74 36.2ZM293.35 35.56C293.35 35.56 293.31 35.47 293.29 35.43C293.31 35.47 293.33 35.52 293.35 35.56ZM301.19 39.79C304.29 40.53 308.08 40.99 312.2 41.06C308.08 41 304.29 40.53 301.19 39.79ZM294.75 37.17C294.85 37.25 294.96 37.32 295.07 37.39C294.96 37.32 294.85 37.24 294.75 37.17ZM296.46 38.18C296.65 38.27 296.85 38.36 297.05 38.45C296.84 38.36 296.65 38.27 296.46 38.18ZM297.5 38.64C297.75 38.74 297.99 38.84 298.26 38.93C298 38.84 297.75 38.74 297.5 38.64ZM298.64 39.06C298.95 39.16 299.26 39.27 299.58 39.36C299.25 39.26 298.94 39.16 298.64 39.06ZM299.88 39.44C300.25 39.55 300.64 39.65 301.03 39.75C300.63 39.65 300.25 39.55 299.88 39.44Z" stroke="#1D3557" stroke-width="2" stroke-linecap="round" stroke-linejoin="round"/>
<path d="M313.29 12.94C324.292 12.94 333.21 10.2671 333.21 6.97C333.21 3.67286 324.292 1 313.29 1C302.288 1 293.37 3.67286 293.37 6.97C293.37 10.2671 302.288 12.94 313.29 12.94Z" stroke="#1D3557" stroke-width="2" stroke-linecap="round" stroke-linejoin="round"/>
</g>
<g clip-path="url(#clip4_298_853)">
<path d="M345.8 179.51H315.03C313.462 179.51 312.19 180.782 312.19 182.35V201.86C312.19 203.429 313.462 204.7 315.03 204.7H345.8C347.368 204.7 348.64 203.429 348.64 201.86V182.35C348.64 180.782 347.368 179.51 345.8 179.51Z" stroke="#E53945" stroke-width="2" stroke-linecap="round" stroke-linejoin="round"/>
<path d="M321.923 184.569C320.693 184.569 319.766 184.865 319.143 185.456C318.52 186.047 318.209 186.717 318.209 187.468C318.209 188.251 318.48 188.906 319.024 189.433C319.583 189.96 320.429 190.439 321.563 190.87C322.122 191.078 322.554 191.334 322.857 191.637C323.16 191.941 323.312 192.276 323.312 192.643C323.312 192.947 323.2 193.21 322.977 193.434C322.769 193.658 322.458 193.769 322.042 193.769C321.595 193.769 321.236 193.634 320.964 193.362C320.709 193.075 320.581 192.683 320.581 192.188H318.089C318.169 193.242 318.536 194.073 319.191 194.68C319.846 195.287 320.805 195.59 322.066 195.59C323.296 195.59 324.239 195.295 324.894 194.704C325.564 194.129 325.9 193.426 325.9 192.595C325.9 191.749 325.596 191.03 324.989 190.439C324.382 189.832 323.536 189.353 322.45 189.002C321.907 188.826 321.491 188.602 321.204 188.331C320.932 188.059 320.797 187.748 320.797 187.396C320.797 187.109 320.9 186.869 321.108 186.678C321.332 186.486 321.595 186.39 321.899 186.39C322.25 186.39 322.546 186.526 322.785 186.797C323.041 187.053 323.168 187.372 323.168 187.756H325.66C325.66 186.909 325.333 186.166 324.678 185.528C324.039 184.889 323.121 184.569 321.923 184.569ZM331.961 184.569C330.364 184.569 329.142 185.136 328.296 186.27C327.465 187.404 327.05 188.69 327.05 190.128C327.05 191.757 327.505 193.075 328.416 194.081C329.326 195.087 330.492 195.59 331.914 195.59C332.505 195.59 333.032 195.502 333.495 195.327C333.974 195.151 334.373 194.911 334.693 194.608L336.106 195.854L337.496 194.536L335.891 193.051C336.114 192.699 336.298 192.252 336.442 191.709C336.602 191.15 336.681 190.559 336.681 189.936C336.681 188.514 336.282 187.269 335.483 186.198C334.701 185.112 333.527 184.569 331.961 184.569ZM331.914 186.39C332.584 186.39 333.111 186.749 333.495 187.468C333.894 188.171 334.094 188.994 334.094 189.936C334.094 190.223 334.086 190.503 334.07 190.775C334.054 191.03 334.006 191.27 333.926 191.493L333.255 190.822L331.937 192.188L333.183 193.338C333.056 193.45 332.88 193.554 332.656 193.65C332.433 193.729 332.185 193.769 331.914 193.769C331.307 193.769 330.771 193.434 330.308 192.763C329.861 192.076 329.637 191.174 329.637 190.056C329.637 188.906 329.845 188.011 330.26 187.372C330.692 186.717 331.243 186.39 331.914 186.39ZM338.598 184.713V193.578C338.598 194.121 338.806 194.568 339.221 194.919C339.636 195.271 340.116 195.447 340.659 195.447H345.187V193.721H341.09V184.713H338.598Z" fill="#E53945"/>
<path d="M293.37 168.92C293.34 168.86 293.31 168.79 293.29 168.73M294.11 183.61C294.18 183.68 294.25 183.74 294.32 183.81M295.54 184.69C295.68 184.77 295.83 184.86 295.98 184.94M345.8 179.51H333.42V154.44C333.42 150.88 324.4 148 313.26 148C302.12 148 293.11 150.88 293.11 154.44V195.92H293.21C294.14 199.07 302.2 201.56 312.19 201.73V201.86C312.19 203.42 313.47 204.7 315.03 204.7H345.81C347.37 204.7 348.65 203.42 348.65 201.86V182.34C348.65 180.78 347.37 179.5 345.81 179.5L345.8 179.51ZM330.31 171.36C326.75 173.17 320.46 174.38 313.27 174.38C306.08 174.38 299.79 173.17 296.23 171.36C299.8 173.16 306.09 174.36 313.27 174.36C320.45 174.36 326.74 173.16 330.31 171.36ZM330.4 171.32C330.67 171.18 330.92 171.04 331.15 170.89C330.91 171.04 330.66 171.18 330.4 171.32ZM331.36 170.77C331.55 170.65 331.72 170.52 331.89 170.39C331.73 170.52 331.55 170.64 331.36 170.77ZM332.15 170.18C332.27 170.07 332.39 169.97 332.49 169.86C332.38 169.97 332.27 170.07 332.15 170.18ZM332.76 169.56C332.83 169.47 332.9 169.39 332.95 169.3C332.89 169.39 332.82 169.47 332.76 169.56ZM333.18 168.91C333.21 168.85 333.24 168.78 333.26 168.72C333.24 168.78 333.2 168.85 333.18 168.91ZM296.15 171.33C295.88 171.19 295.63 171.05 295.4 170.9C295.64 171.05 295.88 171.19 296.15 171.33ZM295.19 170.78C295 170.66 294.82 170.53 294.66 170.4C294.83 170.53 295 170.65 295.19 170.78ZM294.4 170.19C294.28 170.08 294.16 169.98 294.06 169.87C294.17 169.98 294.28 170.09 294.4 170.19ZM293.79 169.57C293.72 169.48 293.65 169.4 293.6 169.31C293.66 169.4 293.72 169.48 293.79 169.57ZM293.74 183.2C293.7 183.15 293.65 183.09 293.62 183.04C293.66 183.1 293.7 183.15 293.74 183.2ZM293.35 182.56C293.35 182.56 293.31 182.47 293.29 182.43C293.31 182.47 293.33 182.52 293.35 182.56ZM301.19 186.79C304.29 187.53 308.08 187.99 312.2 188.06C308.08 188 304.29 187.53 301.19 186.79ZM294.75 184.17C294.85 184.25 294.96 184.32 295.07 184.39C294.96 184.32 294.85 184.24 294.75 184.17ZM296.46 185.18C296.65 185.27 296.85 185.36 297.05 185.45C296.84 185.36 296.65 185.27 296.46 185.18ZM297.5 185.64C297.75 185.74 297.99 185.84 298.26 185.93C298 185.84 297.75 185.74 297.5 185.64ZM298.64 186.06C298.95 186.16 299.26 186.27 299.58 186.36C299.25 186.26 298.94 186.16 298.64 186.06ZM299.88 186.44C300.25 186.55 300.64 186.65 301.03 186.75C300.63 186.65 300.25 186.55 299.88 186.44Z" stroke="#E53945" stroke-width="2" stroke-linecap="round" stroke-linejoin="round"/>
<path d="M313.29 159.94C324.292 159.94 333.21 157.267 333.21 153.97C333.21 150.673 324.292 148 313.29 148C302.288 148 293.37 150.673 293.37 153.97C293.37 157.267 302.288 159.94 313.29 159.94Z" stroke="#E53945" stroke-width="2" stroke-linecap="round" stroke-linejoin="round"/>
</g>
<g clip-path="url(#clip5_298_853)">
<path d="M261.03 74.6899H226.96L212.19 92.9399H274.48L261.03 74.6899Z" stroke="#1D3557" stroke-width="2" stroke-linejoin="round"/>
<path d="M226.96 74.6899L231.06 92.9399L243.34 74.6899L255.26 92.9399L261.03 74.6899" stroke="#1D3557" stroke-width="2" stroke-linejoin="round"/>
<path d="M274.48 92.9399L243.34 131.38L212.19 92.9399H274.48Z" stroke="#1D3557" stroke-width="2" stroke-linejoin="round"/>
<path d="M231.06 92.9399L243.34 131.38L255.26 92.9399" stroke="#1D3557" stroke-width="2" stroke-linejoin="round"/>
</g>
<g clip-path="url(#clip6_298_853)">
<path d="M261.03 221.69H226.96L212.19 239.94H274.48L261.03 221.69Z" stroke="#E53945" stroke-width="2" stroke-linejoin="round"/>
<path d="M226.96 221.69L231.06 239.94L243.34 221.69L255.26 239.94L261.03 221.69" stroke="#E53945" stroke-width="2" stroke-linejoin="round"/>
<path d="M274.48 239.94L243.34 278.38L212.19 239.94H274.48Z" stroke="#E53945" stroke-width="2" stroke-linejoin="round"/>
<path d="M231.06 239.94L243.34 278.38L255.26 239.94" stroke="#E53945" stroke-width="2" stroke-linejoin="round"/>
</g>
<g clip-path="url(#clip7_298_853)">
<path d="M104.33 112.41C109.461 112.41 113.62 108.251 113.62 103.12C113.62 97.9894 109.461 93.8301 104.33 93.8301C99.1993 93.8301 95.04 97.9894 95.04 103.12C95.04 108.251 99.1993 112.41 104.33 112.41Z" stroke="#1D3557" stroke-width="2" stroke-linecap="round" stroke-linejoin="round"/>
<path d="M84.54 74.77C79.41 74.77 75.25 78.93 75.25 84.06C75.25 89.19 79.41 93.35 84.54 93.35H94.81V74.77H84.54Z" stroke="#1D3557" stroke-width="2" stroke-linecap="round" stroke-linejoin="round"/>
<path d="M105.31 74.77H95.04V93.35H105.31C110.44 93.35 114.6 89.19 114.6 84.06C114.6 78.93 110.44 74.77 105.31 74.77Z" stroke="#1D3557" stroke-width="2" stroke-linecap="round" stroke-linejoin="round"/>
<path d="M84.54 93.8301C79.41 93.8301 75.25 97.9901 75.25 103.12C75.25 108.25 79.41 112.41 84.54 112.41H94.81V93.8301H84.54Z" stroke="#1D3557" stroke-width="2" stroke-linecap="round" stroke-linejoin="round"/>
<path d="M84.54 112.88V112.93C79.87 113.42 76.24 117.37 76.24 122.17C76.24 127.3 80.4 131.46 85.53 131.46C90.33 131.46 94.27 127.82 94.77 123.16H94.82V112.89H84.55L84.54 112.88Z" stroke="#1D3557" stroke-width="2" stroke-linecap="round" stroke-linejoin="round"/>
</g>
<g clip-path="url(#clip8_298_853)">
<path d="M104.33 259.41C109.461 259.41 113.62 255.251 113.62 250.12C113.62 244.989 109.461 240.83 104.33 240.83C99.1993 240.83 95.04 244.989 95.04 250.12C95.04 255.251 99.1993 259.41 104.33 259.41Z" stroke="#E53945" stroke-width="2" stroke-linecap="round" stroke-linejoin="round"/>
<path d="M84.54 221.77C79.41 221.77 75.25 225.93 75.25 231.06C75.25 236.19 79.41 240.35 84.54 240.35H94.81V221.77H84.54Z" stroke="#E53945" stroke-width="2" stroke-linecap="round" stroke-linejoin="round"/>
<path d="M105.31 221.77H95.04V240.35H105.31C110.44 240.35 114.6 236.19 114.6 231.06C114.6 225.93 110.44 221.77 105.31 221.77Z" stroke="#E53945" stroke-width="2" stroke-linecap="round" stroke-linejoin="round"/>
<path d="M84.54 240.83C79.41 240.83 75.25 244.99 75.25 250.12C75.25 255.25 79.41 259.41 84.54 259.41H94.81V240.83H84.54Z" stroke="#E53945" stroke-width="2" stroke-linecap="round" stroke-linejoin="round"/>
<path d="M84.54 259.88V259.93C79.87 260.42 76.24 264.37 76.24 269.17C76.24 274.3 80.4 278.46 85.53 278.46C90.33 278.46 94.27 274.82 94.77 270.16H94.82V259.89H84.55L84.54 259.88Z" stroke="#E53945" stroke-width="2" stroke-linecap="round" stroke-linejoin="round"/>
</g>
<g clip-path="url(#clip9_298_853)">
<path d="M418.24 74.6899H370.05C367.703 74.6899 365.8 76.5927 365.8 78.9399V127.13C365.8 129.477 367.703 131.38 370.05 131.38H418.24C420.587 131.38 422.49 129.477 422.49 127.13V78.9399C422.49 76.5927 420.587 74.6899 418.24 74.6899Z" stroke="#1D3557" stroke-width="2" stroke-linecap="round" stroke-linejoin="round"/>
<path d="M392.01 91.55L399.98 113.08H395.22L393.79 109.3H387.12L385.69 113.08H380.93L388.9 91.55H392.02H392.01ZM392.57 105.19L390.45 98.83L388.33 105.19H392.57Z" fill="#1D3557"/>
<path d="M406.36 91.22V95.81H401.86V91.22H406.36ZM406.36 97.25V113.09H401.86V97.25H406.36Z" fill="#1D3557"/>
</g>
<g clip-path="url(#clip10_298_853)">
<path d="M418.24 221.69H370.05C367.703 221.69 365.8 223.593 365.8 225.94V274.13C365.8 276.477 367.703 278.38 370.05 278.38H418.24C420.587 278.38 422.49 276.477 422.49 274.13V225.94C422.49 223.593 420.587 221.69 418.24 221.69Z" stroke="#E53945" stroke-width="2" stroke-linecap="round" stroke-linejoin="round"/>
<path d="M392.01 238.55L399.98 260.08H395.22L393.79 256.3H387.12L385.69 260.08H380.93L388.9 238.55H392.02H392.01ZM392.57 252.19L390.45 245.83L388.33 252.19H392.57Z" fill="#E53945"/>
<path d="M406.36 238.22V242.81H401.86V238.22H406.36ZM406.36 244.25V260.09H401.86V244.25H406.36Z" fill="#E53945"/>
</g>
<g clip-path="url(#clip11_298_853)">
<path d="M189.94 74.77H141.75C139.403 74.77 137.5 76.6728 137.5 79.02V127.21C137.5 129.557 139.403 131.46 141.75 131.46H189.94C192.287 131.46 194.19 129.557 194.19 127.21V79.02C194.19 76.6728 192.287 74.77 189.94 74.77Z" stroke="#1D3557" stroke-width="2" stroke-linecap="round" stroke-linejoin="round"/>
<path d="M155.42 91.73L158.32 97.86L161.22 91.73H165.94L160.66 102.35L166.16 113.16H161.44L158.24 106.37L154.99 113.16H150.31L155.9 102.35L150.7 91.73H155.42Z" fill="#1D3557"/>
<path d="M180.98 113.36H176.48V111.64C176.19 112.25 175.81 112.68 175.33 112.96C174.85 113.23 174.24 113.37 173.49 113.37C172.02 113.37 170.71 112.65 169.57 111.22C168.43 109.78 167.86 107.81 167.86 105.29C167.86 102.64 168.4 100.62 169.48 99.24C170.56 97.85 171.87 97.16 173.4 97.16C174.03 97.16 174.64 97.3 175.22 97.59C175.8 97.88 176.22 98.23 176.48 98.64V91.75H180.98V113.38V113.36ZM172.9 101.88C172.54 102.74 172.36 103.92 172.36 105.42C172.36 106.92 172.56 108 172.96 108.77C173.36 109.54 173.85 109.92 174.41 109.92C174.95 109.92 175.42 109.52 175.84 108.72C176.26 107.92 176.47 106.82 176.47 105.42C176.47 104.02 176.29 102.86 175.93 101.95C175.57 101.04 175.07 100.59 174.41 100.59C173.75 100.59 173.25 101.02 172.89 101.88H172.9Z" fill="#1D3557"/>
</g>
<g clip-path="url(#clip12_298_853)">
<path d="M189.94 221.77H141.75C139.403 221.77 137.5 223.673 137.5 226.02V274.21C137.5 276.557 139.403 278.46 141.75 278.46H189.94C192.287 278.46 194.19 276.557 194.19 274.21V226.02C194.19 223.673 192.287 221.77 189.94 221.77Z" stroke="#E53945" stroke-width="2" stroke-linecap="round" stroke-linejoin="round"/>
<path d="M155.42 238.73L158.32 244.86L161.22 238.73H165.94L160.66 249.35L166.16 260.16H161.44L158.24 253.37L154.99 260.16H150.31L155.9 249.35L150.7 238.73H155.42Z" fill="#E53945"/>
<path d="M180.98 260.36H176.48V258.64C176.19 259.25 175.81 259.68 175.33 259.96C174.85 260.23 174.24 260.37 173.49 260.37C172.02 260.37 170.71 259.65 169.57 258.22C168.43 256.78 167.86 254.81 167.86 252.29C167.86 249.64 168.4 247.62 169.48 246.24C170.56 244.85 171.87 244.16 173.4 244.16C174.03 244.16 174.64 244.3 175.22 244.59C175.8 244.88 176.22 245.23 176.48 245.64V238.75H180.98V260.38V260.36ZM172.9 248.88C172.54 249.74 172.36 250.92 172.36 252.42C172.36 253.92 172.56 255 172.96 255.77C173.36 256.54 173.85 256.92 174.41 256.92C174.95 256.92 175.42 256.52 175.84 255.72C176.26 254.92 176.47 253.82 176.47 252.42C176.47 251.02 176.29 249.86 175.93 248.95C175.57 248.04 175.07 247.59 174.41 247.59C173.75 247.59 173.25 248.02 172.89 248.88H172.9Z" fill="#E53945"/>
</g>
<g clip-path="url(#clip13_298_853)">
<path d="M344.55 74.6899H296.36C294.013 74.6899 292.11 76.5927 292.11 78.9399V127.13C292.11 129.477 294.013 131.38 296.36 131.38H344.55C346.897 131.38 348.8 129.477 348.8 127.13V78.9399C348.8 76.5927 346.897 74.6899 344.55 74.6899Z" stroke="#1D3557" stroke-width="2" stroke-linecap="round" stroke-linejoin="round"/>
<path d="M313.26 91.6499C315.74 91.6499 317.56 92.3799 318.72 93.8499C319.87 95.3199 320.45 97.0199 320.45 98.9699C320.45 100.69 319.85 102.26 318.65 103.66C317.45 105.06 315.63 105.77 313.17 105.77H311.44V113.09H306.94V91.6499H313.26ZM311.44 102.32H313.33C314.02 102.32 314.63 101.99 315.15 101.34C315.68 100.69 315.94 99.7899 315.94 98.6399C315.94 97.4899 315.68 96.6099 315.15 96.0099C314.62 95.3999 314.02 95.0999 313.33 95.0999H311.44V102.33V102.32Z" fill="#1D3557"/>
<path d="M333.23 98.44C334.27 99.4 334.86 100.71 335.01 102.36H330.51C330.51 101.79 330.32 101.32 329.95 100.97C329.58 100.62 329.16 100.44 328.69 100.44C328.13 100.44 327.7 100.62 327.4 100.99C327.1 101.36 326.96 101.72 326.96 102.07C326.96 102.55 327.24 102.96 327.8 103.31C328.36 103.66 329.26 103.98 330.51 104.27C331.92 104.59 333.03 105.14 333.82 105.92C334.61 106.7 335.01 107.57 335.01 108.53C335.01 109.93 334.46 111.07 333.35 111.95C332.25 112.83 330.72 113.27 328.76 113.27C326.92 113.27 325.46 112.82 324.4 111.91C323.33 111 322.68 109.69 322.45 107.96H326.95C326.95 108.6 327.12 109.07 327.46 109.37C327.8 109.67 328.2 109.82 328.66 109.82C329.23 109.82 329.68 109.7 330.01 109.46C330.34 109.22 330.5 108.93 330.5 108.57C330.5 108.19 330.28 107.85 329.83 107.54C329.38 107.24 328.6 106.96 327.47 106.7C325.88 106.32 324.65 105.7 323.77 104.86C322.89 104.01 322.45 102.99 322.45 101.77C322.45 100.37 323 99.22 324.11 98.32C325.22 97.43 326.72 96.98 328.62 96.98C330.65 96.98 332.19 97.46 333.23 98.42V98.44Z" fill="#1D3557"/>
</g>
<g clip-path="url(#clip14_298_853)">
<path d="M344.55 221.69H296.36C294.013 221.69 292.11 223.593 292.11 225.94V274.13C292.11 276.477 294.013 278.38 296.36 278.38H344.55C346.897 278.38 348.8 276.477 348.8 274.13V225.94C348.8 223.593 346.897 221.69 344.55 221.69Z" stroke="#E53945" stroke-width="2" stroke-linecap="round" stroke-linejoin="round"/>
<path d="M313.26 238.65C315.74 238.65 317.56 239.38 318.72 240.85C319.87 242.32 320.45 244.02 320.45 245.97C320.45 247.69 319.85 249.26 318.65 250.66C317.45 252.06 315.63 252.77 313.17 252.77H311.44V260.09H306.94V238.65H313.26ZM311.44 249.32H313.33C314.02 249.32 314.63 248.99 315.15 248.34C315.68 247.69 315.94 246.79 315.94 245.64C315.94 244.49 315.68 243.61 315.15 243.01C314.62 242.4 314.02 242.1 313.33 242.1H311.44V249.33V249.32Z" fill="#E53945"/>
<path d="M333.23 245.44C334.27 246.4 334.86 247.71 335.01 249.36H330.51C330.51 248.79 330.32 248.32 329.95 247.97C329.58 247.62 329.16 247.44 328.69 247.44C328.13 247.44 327.7 247.62 327.4 247.99C327.1 248.36 326.96 248.72 326.96 249.07C326.96 249.55 327.24 249.96 327.8 250.31C328.36 250.66 329.26 250.98 330.51 251.27C331.92 251.59 333.03 252.14 333.82 252.92C334.61 253.7 335.01 254.57 335.01 255.53C335.01 256.93 334.46 258.07 333.35 258.95C332.25 259.83 330.72 260.27 328.76 260.27C326.92 260.27 325.46 259.82 324.4 258.91C323.33 258 322.68 256.69 322.45 254.96H326.95C326.95 255.6 327.12 256.07 327.46 256.37C327.8 256.67 328.2 256.82 328.66 256.82C329.23 256.82 329.68 256.7 330.01 256.46C330.34 256.22 330.5 255.93 330.5 255.57C330.5 255.19 330.28 254.85 329.83 254.54C329.38 254.24 328.6 253.96 327.47 253.7C325.88 253.32 324.65 252.7 323.77 251.86C322.89 251.01 322.45 249.99 322.45 248.77C322.45 247.37 323 246.22 324.11 245.32C325.22 244.43 326.72 243.98 328.62 243.98C330.65 243.98 332.19 244.46 333.23 245.42V245.44Z" fill="#E53945"/>
</g>
<g clip-path="url(#clip15_298_853)">
<path d="M405.6 1H387.36C385.23 1 383.48 2.74 383.48 4.88V16H369.3C367.38 16 365.8 17.57 365.8 19.5V37.06C365.8 39.7 367.96 41.86 370.6 41.86H378.94V33.7C378.94 31.5 380.72 29.72 382.92 29.72H405.98C407.9 29.72 409.48 28.15 409.48 26.22V4.88C409.48 2.75 407.74 1 405.6 1Z" stroke="#1D3557" stroke-width="2" stroke-miterlimit="10"/>
<path d="M383.49 15.99H396.88" stroke="#1D3557" stroke-width="2" stroke-linecap="round" stroke-linejoin="round"/>
<path d="M404.89 44.05H392.25" stroke="#1D3557" stroke-width="2" stroke-linecap="round" stroke-linejoin="round"/>
<path d="M397.73 52.03C398.277 52.03 398.72 51.5868 398.72 51.0401C398.72 50.4933 398.277 50.05 397.73 50.05C397.183 50.05 396.74 50.4933 396.74 51.0401C396.74 51.5868 397.183 52.03 397.73 52.03Z" fill="#1D3557" stroke="#1D3557" stroke-width="1.46" stroke-miterlimit="10"/>
<path d="M390.77 9.51003C391.317 9.51003 391.76 9.06679 391.76 8.52003C391.76 7.97327 391.317 7.53003 390.77 7.53003C390.223 7.53003 389.78 7.97327 389.78 8.52003C389.78 9.06679 390.223 9.51003 390.77 9.51003Z" fill="#1D3557" stroke="#1D3557" stroke-width="1.46" stroke-miterlimit="10"/>
<path d="M417.27 18.02H409.48V26.19C409.48 28.14 407.9 29.73 405.94 29.73H392H382.82C380.69 29.73 378.94 31.47 378.94 33.61V53.83C378.94 55.96 380.68 57.7 382.81 57.7H401.01C403.14 57.7 404.89 55.96 404.89 53.82V44.05H417.27C420.47 44.05 423.08 41.43 423.08 38.24V23.84C423.08 20.64 420.46 18.03 417.27 18.03V18.02Z" stroke="#1D3557" stroke-width="2" stroke-linecap="round" stroke-linejoin="round"/>
</g>
<g clip-path="url(#clip16_298_853)">
<path d="M405.6 148H387.36C385.23 148 383.48 149.74 383.48 151.88V163H369.3C367.38 163 365.8 164.57 365.8 166.5V184.06C365.8 186.7 367.96 188.86 370.6 188.86H378.94V180.7C378.94 178.5 380.72 176.72 382.92 176.72H405.98C407.9 176.72 409.48 175.15 409.48 173.22V151.88C409.48 149.75 407.74 148 405.6 148Z" stroke="#E53945" stroke-width="2" stroke-miterlimit="10"/>
<path d="M383.49 162.99H396.88" stroke="#E53945" stroke-width="2" stroke-linecap="round" stroke-linejoin="round"/>
<path d="M404.89 191.05H392.25" stroke="#E53945" stroke-width="2" stroke-linecap="round" stroke-linejoin="round"/>
<path d="M397.73 199.03C398.277 199.03 398.72 198.587 398.72 198.04C398.72 197.493 398.277 197.05 397.73 197.05C397.183 197.05 396.74 197.493 396.74 198.04C396.74 198.587 397.183 199.03 397.73 199.03Z" fill="#E53945" stroke="#E53945" stroke-width="1.46" stroke-miterlimit="10"/>
<path d="M390.77 156.51C391.317 156.51 391.76 156.067 391.76 155.52C391.76 154.973 391.317 154.53 390.77 154.53C390.223 154.53 389.78 154.973 389.78 155.52C389.78 156.067 390.223 156.51 390.77 156.51Z" fill="#E53945" stroke="#E53945" stroke-width="1.46" stroke-miterlimit="10"/>
<path d="M417.27 165.02H409.48V173.19C409.48 175.14 407.9 176.73 405.94 176.73H392H382.82C380.69 176.73 378.94 178.47 378.94 180.61V200.83C378.94 202.96 380.68 204.7 382.81 204.7H401.01C403.14 204.7 404.89 202.96 404.89 200.82V191.05H417.27C420.47 191.05 423.08 188.43 423.08 185.24V170.84C423.08 167.64 420.46 165.03 417.27 165.03V165.02Z" stroke="#E53945" stroke-width="2" stroke-linecap="round" stroke-linejoin="round"/>
</g>
<g clip-path="url(#clip17_298_853)">
<path d="M1.09003 1H52.15L47.75 48.98L26.32 57.69L5.41003 48.99L1.09003 1Z" stroke="#1D3557" stroke-width="2" stroke-miterlimit="10"/>
<path d="M41.8801 13.02H11.3701L12.7601 25.3H38.5701L36.7901 41.28L26.6201 45.24L15.2001 41.21L14.3401 34.54" stroke="#1D3557" stroke-width="2" stroke-linecap="round" stroke-linejoin="round"/>
</g>
<g clip-path="url(#clip18_298_853)">
<path d="M1.09003 148H52.15L47.75 195.98L26.32 204.69L5.41003 195.99L1.09003 148Z" stroke="#E53945" stroke-width="2" stroke-miterlimit="10"/>
<path d="M41.8801 160.02H11.3701L12.7601 172.3H38.5701L36.7901 188.28L26.6201 192.24L15.2001 188.21L14.3401 181.54" stroke="#E53945" stroke-width="2" stroke-linecap="round" stroke-linejoin="round"/>
</g>
<g clip-path="url(#clip19_298_853)">
<path d="M69.34 1H120.4L116 48.98L94.57 57.69L73.66 48.99L69.34 1Z" stroke="#1D3557" stroke-width="2" stroke-miterlimit="10"/>
<path d="M80.02 13.02H109.73L105.64 41.01L94.87 45.24L84.11 41.41L82.92 34.28" stroke="#1D3557" stroke-width="2" stroke-linecap="round" stroke-linejoin="round"/>
<path d="M81.07 25.5601H107.78" stroke="#1D3557" stroke-width="2" stroke-linecap="round" stroke-linejoin="round"/>
</g>
<g clip-path="url(#clip20_298_853)">
<path d="M69.34 148H120.4L116 195.98L94.57 204.69L73.66 195.99L69.34 148Z" stroke="#E53945" stroke-width="2" stroke-miterlimit="10"/>
<path d="M80.02 160.02H109.73L105.64 188.01L94.87 192.24L84.11 188.41L82.92 181.28" stroke="#E53945" stroke-width="2" stroke-linecap="round" stroke-linejoin="round"/>
<path d="M81.07 172.56H107.78" stroke="#E53945" stroke-width="2" stroke-linecap="round" stroke-linejoin="round"/>
</g>
<g clip-path="url(#clip21_298_853)">
<path d="M140.59 1H191.65L187.25 48.98L165.82 57.69L144.91 48.99L140.59 1Z" stroke="#1D3557" stroke-width="2" stroke-miterlimit="10"/>
<path d="M162.84 10.24V45.77L152.42 44.05V36.65" stroke="#1D3557" stroke-width="2" stroke-linecap="round" stroke-linejoin="round"/>
<path d="M183.03 10.24H169.55V29.13H180.32L179.44 43.71L169.55 45.24" stroke="#1D3557" stroke-width="2" stroke-linecap="round" stroke-linejoin="round"/>
</g>
<g clip-path="url(#clip22_298_853)">
<path d="M140.59 148H191.65L187.25 195.98L165.82 204.69L144.91 195.99L140.59 148Z" stroke="#E53945" stroke-width="2" stroke-miterlimit="10"/>
<path d="M162.84 157.24V192.77L152.42 191.05V183.65" stroke="#E53945" stroke-width="2" stroke-linecap="round" stroke-linejoin="round"/>
<path d="M183.03 157.24H169.55V176.13H180.32L179.44 190.71L169.55 192.24" stroke="#E53945" stroke-width="2" stroke-linecap="round" stroke-linejoin="round"/>
</g>
<g clip-path="url(#clip23_298_853)">
<path d="M39.82 74.77H14.25C11.9028 74.77 10 76.6728 10 79.02V127.21C10 129.557 11.9028 131.46 14.25 131.46H39.82C42.1672 131.46 44.07 129.557 44.07 127.21V79.02C44.07 76.6728 42.1672 74.77 39.82 74.77Z" stroke="#1D3557" stroke-width="2" stroke-linejoin="round"/>
<path d="M21.61 126.37H32.47" stroke="#1D3557" stroke-width="2" stroke-linecap="round" stroke-linejoin="round"/>
<path d="M14.96 101.47V99.5299C17.81 97.9199 20.64 96.5399 23.49 95.1499V97.2399C21.21 98.3499 18.92 99.4299 16.76 100.5C18.92 101.56 21.22 102.67 23.49 103.78V105.87C20.64 104.47 17.81 103.09 14.96 101.49V101.47Z" fill="#1D3557"/>
<path d="M27.98 92.24H29.91L26.85 108.53H24.92L27.98 92.24Z" fill="#1D3557"/>
<path d="M38.08 100.49C35.92 99.4301 33.62 98.3401 31.35 97.2301V95.1401C34.2 96.5401 37.03 97.9201 39.88 99.5201V101.46C37.03 103.07 34.2 104.45 31.35 105.84V103.75C33.63 102.64 35.92 101.54 38.08 100.47V100.49Z" fill="#1D3557"/>
<path d="M27.04 80.0201C27.9678 80.0201 28.72 79.3127 28.72 78.4401C28.72 77.5675 27.9678 76.8601 27.04 76.8601C26.1121 76.8601 25.36 77.5675 25.36 78.4401C25.36 79.3127 26.1121 80.0201 27.04 80.0201Z" fill="#1D3557"/>
</g>
<g clip-path="url(#clip24_298_853)">
<path d="M39.82 221.77H14.25C11.9028 221.77 10 223.673 10 226.02V274.21C10 276.557 11.9028 278.46 14.25 278.46H39.82C42.1672 278.46 44.07 276.557 44.07 274.21V226.02C44.07 223.673 42.1672 221.77 39.82 221.77Z" stroke="#E53945" stroke-width="2" stroke-linejoin="round"/>
<path d="M21.61 273.37H32.47" stroke="#E53945" stroke-width="2" stroke-linecap="round" stroke-linejoin="round"/>
<path d="M14.96 248.47V246.53C17.81 244.92 20.64 243.54 23.49 242.15V244.24C21.21 245.35 18.92 246.43 16.76 247.5C18.92 248.56 21.22 249.67 23.49 250.78V252.87C20.64 251.47 17.81 250.09 14.96 248.49V248.47Z" fill="#E53945"/>
<path d="M27.98 239.24H29.91L26.85 255.53H24.92L27.98 239.24Z" fill="#E53945"/>
<path d="M38.08 247.49C35.92 246.43 33.62 245.34 31.35 244.23V242.14C34.2 243.54 37.03 244.92 39.88 246.52V248.46C37.03 250.07 34.2 251.45 31.35 252.84V250.75C33.63 249.64 35.92 248.54 38.08 247.47V247.49Z" fill="#E53945"/>
<path d="M27.04 227.02C27.9678 227.02 28.72 226.313 28.72 225.44C28.72 224.567 27.9678 223.86 27.04 223.86C26.1121 223.86 25.36 224.567 25.36 225.44C25.36 226.313 26.1121 227.02 27.04 227.02Z" fill="#E53945"/>
</g>
</g>
<defs>
<clipPath id="clip0_298_853">
<rect width="424" height="279" fill="white"/>
</clipPath>
<clipPath id="clip1_298_853">
<rect width="66" height="58.69" fill="white" transform="translate(210.19)"/>
</clipPath>
<clipPath id="clip2_298_853">
<rect width="66" height="58.69" fill="white" transform="translate(210.19 147)"/>
</clipPath>
<clipPath id="clip3_298_853">
<rect width="57.53" height="58.69" fill="white" transform="translate(292.11)"/>
</clipPath>
<clipPath id="clip4_298_853">
<rect width="57.53" height="58.69" fill="white" transform="translate(292.11 147)"/>
</clipPath>
<clipPath id="clip5_298_853">
<rect width="64.29" height="58.69" fill="white" transform="translate(211.19 73.6899)"/>
</clipPath>
<clipPath id="clip6_298_853">
<rect width="64.29" height="58.69" fill="white" transform="translate(211.19 220.69)"/>
</clipPath>
<clipPath id="clip7_298_853">
<rect width="41.35" height="58.69" fill="white" transform="translate(74.25 73.77)"/>
</clipPath>
<clipPath id="clip8_298_853">
<rect width="41.35" height="58.69" fill="white" transform="translate(74.25 220.77)"/>
</clipPath>
<clipPath id="clip9_298_853">
<rect width="58.69" height="58.69" fill="white" transform="translate(364.8 73.6899)"/>
</clipPath>
<clipPath id="clip10_298_853">
<rect width="58.69" height="58.69" fill="white" transform="translate(364.8 220.69)"/>
</clipPath>
<clipPath id="clip11_298_853">
<rect width="58.69" height="58.69" fill="white" transform="translate(136.5 73.77)"/>
</clipPath>
<clipPath id="clip12_298_853">
<rect width="58.69" height="58.69" fill="white" transform="translate(136.5 220.77)"/>
</clipPath>
<clipPath id="clip13_298_853">
<rect width="58.69" height="58.69" fill="white" transform="translate(291.11 73.6899)"/>
</clipPath>
<clipPath id="clip14_298_853">
<rect width="58.69" height="58.69" fill="white" transform="translate(291.11 220.69)"/>
</clipPath>
<clipPath id="clip15_298_853">
<rect width="59.28" height="58.69" fill="white" transform="translate(364.8)"/>
</clipPath>
<clipPath id="clip16_298_853">
<rect width="59.28" height="58.69" fill="white" transform="translate(364.8 147)"/>
</clipPath>
<clipPath id="clip17_298_853">
<rect width="53.25" height="58.77" fill="white"/>
</clipPath>
<clipPath id="clip18_298_853">
<rect width="53.25" height="58.77" fill="white" transform="translate(0 147)"/>
</clipPath>
<clipPath id="clip19_298_853">
<rect width="53.25" height="58.77" fill="white" transform="translate(68.25)"/>
</clipPath>
<clipPath id="clip20_298_853">
<rect width="53.25" height="58.77" fill="white" transform="translate(68.25 147)"/>
</clipPath>
<clipPath id="clip21_298_853">
<rect width="53.25" height="58.77" fill="white" transform="translate(139.5)"/>
</clipPath>
<clipPath id="clip22_298_853">
<rect width="53.25" height="58.77" fill="white" transform="translate(139.5 147)"/>
</clipPath>
<clipPath id="clip23_298_853">
<rect width="36.07" height="58.69" fill="white" transform="translate(9 73.77)"/>
</clipPath>
<clipPath id="clip24_298_853">
<rect width="36.07" height="58.69" fill="white" transform="translate(9 220.77)"/>
</clipPath>
</defs>
</svg>
