<svg width="424" height="132" viewBox="0 0 424 132" fill="none" xmlns="http://www.w3.org/2000/svg">
<g clip-path="url(#clip0_298_853)">
<g clip-path="url(#clip1_298_853)">
<path d="M243.19 32.69C245.037 32.69 246.534 31.1946 246.534 29.35C246.534 27.5054 245.037 26.01 243.19 26.01C241.343 26.01 239.846 27.5054 239.846 29.35C239.846 31.1946 241.343 32.69 243.19 32.69Z" stroke="#1D3557" stroke-width="2" stroke-linecap="round" stroke-linejoin="round"/>
<path d="M259.189 57.0259C265.021 53.6625 262.586 38.5439 253.75 23.2577C244.914 7.97146 233.023 -1.69389 227.19 1.66952C221.357 5.03294 223.792 20.1515 232.628 35.4377C241.464 50.7239 253.356 60.3893 259.189 57.0259Z" stroke="#1D3557" stroke-width="2" stroke-linecap="round" stroke-linejoin="round"/>
<path d="M253.759 35.4408C262.595 20.1546 265.03 5.03604 259.197 1.67262C253.365 -1.69079 241.473 7.97456 232.637 23.2608C223.801 38.547 221.366 53.6656 227.198 57.029C233.031 60.3924 244.923 50.727 253.759 35.4408Z" stroke="#1D3557" stroke-width="2" stroke-linecap="round" stroke-linejoin="round"/>
<path d="M243.19 41.5299C260.862 41.5299 275.189 36.0767 275.189 29.3499C275.189 22.6231 260.862 17.1699 243.19 17.1699C225.518 17.1699 211.191 22.6231 211.191 29.3499C211.191 36.0767 225.518 41.5299 243.19 41.5299Z" stroke="#1D3557" stroke-width="2" stroke-linecap="round" stroke-linejoin="round"/>
</g>
<g clip-path="url(#clip2_298_853)">
<path d="M345.8 32.51H315.03C313.462 32.51 312.19 33.7815 312.19 35.35V54.86C312.19 56.4285 313.462 57.7 315.03 57.7H345.8C347.368 57.7 348.64 56.4285 348.64 54.86V35.35C348.64 33.7815 347.368 32.51 345.8 32.51Z" stroke="#1D3557" stroke-width="2" stroke-linecap="round" stroke-linejoin="round"/>
<path d="M321.923 37.5691C320.693 37.5691 319.766 37.8646 319.143 38.4556C318.52 39.0466 318.209 39.7175 318.209 40.4682C318.209 41.2508 318.48 41.9057 319.024 42.4328C319.583 42.9599 320.429 43.4391 321.563 43.8704C322.122 44.078 322.554 44.3336 322.857 44.6371C323.16 44.9405 323.312 45.276 323.312 45.6433C323.312 45.9468 323.2 46.2104 322.977 46.434C322.769 46.6576 322.458 46.7694 322.042 46.7694C321.595 46.7694 321.236 46.6336 320.964 46.3621C320.709 46.0746 320.581 45.6833 320.581 45.1881H318.089C318.169 46.2423 318.536 47.0729 319.191 47.6799C319.846 48.2868 320.805 48.5903 322.066 48.5903C323.296 48.5903 324.239 48.2948 324.894 47.7038C325.564 47.1288 325.9 46.426 325.9 45.5954C325.9 44.7489 325.596 44.0301 324.989 43.4391C324.382 42.8321 323.536 42.353 322.45 42.0016C321.907 41.8259 321.491 41.6022 321.204 41.3307C320.932 41.0592 320.797 40.7477 320.797 40.3963C320.797 40.1088 320.9 39.8692 321.108 39.6775C321.332 39.4859 321.595 39.39 321.899 39.39C322.25 39.39 322.546 39.5258 322.785 39.7973C323.041 40.0529 323.168 40.3723 323.168 40.7557H325.66C325.66 39.9091 325.333 39.1664 324.678 38.5275C324.039 37.8886 323.121 37.5691 321.923 37.5691ZM331.961 37.5691C330.364 37.5691 329.142 38.1362 328.296 39.2702C327.465 40.4043 327.05 41.6901 327.05 43.1276C327.05 44.7569 327.505 46.0746 328.416 47.0809C329.326 48.0872 330.492 48.5903 331.914 48.5903C332.505 48.5903 333.032 48.5024 333.495 48.3267C333.974 48.151 334.373 47.9115 334.693 47.608L336.106 48.8538L337.496 47.5361L335.891 46.0506C336.114 45.6992 336.298 45.252 336.442 44.7089C336.602 44.1499 336.681 43.5589 336.681 42.936C336.681 41.5144 336.282 40.2685 335.483 39.1984C334.701 38.1122 333.527 37.5691 331.961 37.5691ZM331.914 39.39C332.584 39.39 333.111 39.7494 333.495 40.4682C333.894 41.171 334.094 41.9936 334.094 42.936C334.094 43.2235 334.086 43.503 334.07 43.7745C334.054 44.0301 334.006 44.2697 333.926 44.4933L333.255 43.8224L331.937 45.1881L333.183 46.3381C333.056 46.45 332.88 46.5538 332.656 46.6496C332.433 46.7295 332.185 46.7694 331.914 46.7694C331.307 46.7694 330.771 46.434 330.308 45.7631C329.861 45.0763 329.637 44.1738 329.637 43.0558C329.637 41.9057 329.845 41.0113 330.26 40.3723C330.692 39.7175 331.243 39.39 331.914 39.39ZM338.598 37.7129V46.5777C338.598 47.1208 338.806 47.568 339.221 47.9194C339.636 48.2708 340.116 48.4465 340.659 48.4465H345.187V46.7215H341.09V37.7129H338.598Z" fill="#1D3557"/>
<path d="M293.37 21.92C293.34 21.86 293.31 21.79 293.29 21.73M294.11 36.61C294.18 36.68 294.25 36.74 294.32 36.81M295.54 37.69C295.68 37.77 295.83 37.86 295.98 37.94M345.8 32.51H333.42V7.44C333.42 3.88 324.4 1 313.26 1C302.12 1 293.11 3.88 293.11 7.44V48.92H293.21C294.14 52.07 302.2 54.56 312.19 54.73V54.86C312.19 56.42 313.47 57.7 315.03 57.7H345.81C347.37 57.7 348.65 56.42 348.65 54.86V35.34C348.65 33.78 347.37 32.5 345.81 32.5L345.8 32.51ZM330.31 24.36C326.75 26.17 320.46 27.38 313.27 27.38C306.08 27.38 299.79 26.17 296.23 24.36C299.8 26.16 306.09 27.36 313.27 27.36C320.45 27.36 326.74 26.16 330.31 24.36ZM330.4 24.32C330.67 24.18 330.92 24.04 331.15 23.89C330.91 24.04 330.66 24.18 330.4 24.32ZM331.36 23.77C331.55 23.65 331.72 23.52 331.89 23.39C331.73 23.52 331.55 23.64 331.36 23.77ZM332.15 23.18C332.27 23.07 332.39 22.97 332.49 22.86C332.38 22.97 332.27 23.07 332.15 23.18ZM332.76 22.56C332.83 22.47 332.9 22.39 332.95 22.3C332.89 22.39 332.82 22.47 332.76 22.56ZM333.18 21.91C333.21 21.85 333.24 21.78 333.26 21.72C333.24 21.78 333.2 21.85 333.18 21.91ZM296.15 24.33C295.88 24.19 295.63 24.05 295.4 23.9C295.64 24.05 295.88 24.19 296.15 24.33ZM295.19 23.78C295 23.66 294.82 23.53 294.66 23.4C294.83 23.53 295 23.65 295.19 23.78ZM294.4 23.19C294.28 23.08 294.16 22.98 294.06 22.87C294.17 22.98 294.28 23.09 294.4 23.19ZM293.79 22.57C293.72 22.48 293.65 22.4 293.6 22.31C293.66 22.4 293.72 22.48 293.79 22.57ZM293.74 36.2C293.7 36.15 293.65 36.09 293.62 36.04C293.66 36.1 293.7 36.15 293.74 36.2ZM293.35 35.56C293.35 35.56 293.31 35.47 293.29 35.43C293.31 35.47 293.33 35.52 293.35 35.56ZM301.19 39.79C304.29 40.53 308.08 40.99 312.2 41.06C308.08 41 304.29 40.53 301.19 39.79ZM294.75 37.17C294.85 37.25 294.96 37.32 295.07 37.39C294.96 37.32 294.85 37.24 294.75 37.17ZM296.46 38.18C296.65 38.27 296.85 38.36 297.05 38.45C296.84 38.36 296.65 38.27 296.46 38.18ZM297.5 38.64C297.75 38.74 297.99 38.84 298.26 38.93C298 38.84 297.75 38.74 297.5 38.64ZM298.64 39.06C298.95 39.16 299.26 39.27 299.58 39.36C299.25 39.26 298.94 39.16 298.64 39.06ZM299.88 39.44C300.25 39.55 300.64 39.65 301.03 39.75C300.63 39.65 300.25 39.55 299.88 39.44Z" stroke="#1D3557" stroke-width="2" stroke-linecap="round" stroke-linejoin="round"/>
<path d="M313.29 12.94C324.292 12.94 333.21 10.2671 333.21 6.97C333.21 3.67286 324.292 1 313.29 1C302.288 1 293.37 3.67286 293.37 6.97C293.37 10.2671 302.288 12.94 313.29 12.94Z" stroke="#1D3557" stroke-width="2" stroke-linecap="round" stroke-linejoin="round"/>
</g>
<g clip-path="url(#clip3_298_853)">
<path d="M261.03 74.6899H226.96L212.19 92.9399H274.48L261.03 74.6899Z" stroke="#1D3557" stroke-width="2" stroke-linejoin="round"/>
<path d="M226.96 74.6899L231.06 92.9399L243.34 74.6899L255.26 92.9399L261.03 74.6899" stroke="#1D3557" stroke-width="2" stroke-linejoin="round"/>
<path d="M274.48 92.9399L243.34 131.38L212.19 92.9399H274.48Z" stroke="#1D3557" stroke-width="2" stroke-linejoin="round"/>
<path d="M231.06 92.9399L243.34 131.38L255.26 92.9399" stroke="#1D3557" stroke-width="2" stroke-linejoin="round"/>
</g>
<g clip-path="url(#clip4_298_853)">
<path d="M104.33 112.41C109.461 112.41 113.62 108.251 113.62 103.12C113.62 97.9894 109.461 93.8301 104.33 93.8301C99.1993 93.8301 95.04 97.9894 95.04 103.12C95.04 108.251 99.1993 112.41 104.33 112.41Z" stroke="#1D3557" stroke-width="2" stroke-linecap="round" stroke-linejoin="round"/>
<path d="M84.54 74.77C79.41 74.77 75.25 78.93 75.25 84.06C75.25 89.19 79.41 93.35 84.54 93.35H94.81V74.77H84.54Z" stroke="#1D3557" stroke-width="2" stroke-linecap="round" stroke-linejoin="round"/>
<path d="M105.31 74.77H95.04V93.35H105.31C110.44 93.35 114.6 89.19 114.6 84.06C114.6 78.93 110.44 74.77 105.31 74.77Z" stroke="#1D3557" stroke-width="2" stroke-linecap="round" stroke-linejoin="round"/>
<path d="M84.54 93.8301C79.41 93.8301 75.25 97.9901 75.25 103.12C75.25 108.25 79.41 112.41 84.54 112.41H94.81V93.8301H84.54Z" stroke="#1D3557" stroke-width="2" stroke-linecap="round" stroke-linejoin="round"/>
<path d="M84.54 112.88V112.93C79.87 113.42 76.24 117.37 76.24 122.17C76.24 127.3 80.4 131.46 85.53 131.46C90.33 131.46 94.27 127.82 94.77 123.16H94.82V112.89H84.55L84.54 112.88Z" stroke="#1D3557" stroke-width="2" stroke-linecap="round" stroke-linejoin="round"/>
</g>
<g clip-path="url(#clip5_298_853)">
<path d="M418.24 74.6899H370.05C367.703 74.6899 365.8 76.5927 365.8 78.9399V127.13C365.8 129.477 367.703 131.38 370.05 131.38H418.24C420.587 131.38 422.49 129.477 422.49 127.13V78.9399C422.49 76.5927 420.587 74.6899 418.24 74.6899Z" stroke="#1D3557" stroke-width="2" stroke-linecap="round" stroke-linejoin="round"/>
<path d="M392.01 91.55L399.98 113.08H395.22L393.79 109.3H387.12L385.69 113.08H380.93L388.9 91.55H392.02H392.01ZM392.57 105.19L390.45 98.83L388.33 105.19H392.57Z" fill="#1D3557"/>
<path d="M406.36 91.22V95.81H401.86V91.22H406.36ZM406.36 97.25V113.09H401.86V97.25H406.36Z" fill="#1D3557"/>
</g>
<g clip-path="url(#clip6_298_853)">
<path d="M189.94 74.77H141.75C139.403 74.77 137.5 76.6728 137.5 79.02V127.21C137.5 129.557 139.403 131.46 141.75 131.46H189.94C192.287 131.46 194.19 129.557 194.19 127.21V79.02C194.19 76.6728 192.287 74.77 189.94 74.77Z" stroke="#1D3557" stroke-width="2" stroke-linecap="round" stroke-linejoin="round"/>
<path d="M155.42 91.73L158.32 97.86L161.22 91.73H165.94L160.66 102.35L166.16 113.16H161.44L158.24 106.37L154.99 113.16H150.31L155.9 102.35L150.7 91.73H155.42Z" fill="#1D3557"/>
<path d="M180.98 113.36H176.48V111.64C176.19 112.25 175.81 112.68 175.33 112.96C174.85 113.23 174.24 113.37 173.49 113.37C172.02 113.37 170.71 112.65 169.57 111.22C168.43 109.78 167.86 107.81 167.86 105.29C167.86 102.64 168.4 100.62 169.48 99.24C170.56 97.85 171.87 97.16 173.4 97.16C174.03 97.16 174.64 97.3 175.22 97.59C175.8 97.88 176.22 98.23 176.48 98.64V91.75H180.98V113.38V113.36ZM172.9 101.88C172.54 102.74 172.36 103.92 172.36 105.42C172.36 106.92 172.56 108 172.96 108.77C173.36 109.54 173.85 109.92 174.41 109.92C174.95 109.92 175.42 109.52 175.84 108.72C176.26 107.92 176.47 106.82 176.47 105.42C176.47 104.02 176.29 102.86 175.93 101.95C175.57 101.04 175.07 100.59 174.41 100.59C173.75 100.59 173.25 101.02 172.89 101.88H172.9Z" fill="#1D3557"/>
</g>
<g clip-path="url(#clip7_298_853)">
<path d="M344.55 74.6899H296.36C294.013 74.6899 292.11 76.5927 292.11 78.9399V127.13C292.11 129.477 294.013 131.38 296.36 131.38H344.55C346.897 131.38 348.8 129.477 348.8 127.13V78.9399C348.8 76.5927 346.897 74.6899 344.55 74.6899Z" stroke="#1D3557" stroke-width="2" stroke-linecap="round" stroke-linejoin="round"/>
<path d="M313.26 91.6499C315.74 91.6499 317.56 92.3799 318.72 93.8499C319.87 95.3199 320.45 97.0199 320.45 98.9699C320.45 100.69 319.85 102.26 318.65 103.66C317.45 105.06 315.63 105.77 313.17 105.77H311.44V113.09H306.94V91.6499H313.26ZM311.44 102.32H313.33C314.02 102.32 314.63 101.99 315.15 101.34C315.68 100.69 315.94 99.7899 315.94 98.6399C315.94 97.4899 315.68 96.6099 315.15 96.0099C314.62 95.3999 314.02 95.0999 313.33 95.0999H311.44V102.33V102.32Z" fill="#1D3557"/>
<path d="M333.23 98.44C334.27 99.4 334.86 100.71 335.01 102.36H330.51C330.51 101.79 330.32 101.32 329.95 100.97C329.58 100.62 329.16 100.44 328.69 100.44C328.13 100.44 327.7 100.62 327.4 100.99C327.1 101.36 326.96 101.72 326.96 102.07C326.96 102.55 327.24 102.96 327.8 103.31C328.36 103.66 329.26 103.98 330.51 104.27C331.92 104.59 333.03 105.14 333.82 105.92C334.61 106.7 335.01 107.57 335.01 108.53C335.01 109.93 334.46 111.07 333.35 111.95C332.25 112.83 330.72 113.27 328.76 113.27C326.92 113.27 325.46 112.82 324.4 111.91C323.33 111 322.68 109.69 322.45 107.96H326.95C326.95 108.6 327.12 109.07 327.46 109.37C327.8 109.67 328.2 109.82 328.66 109.82C329.23 109.82 329.68 109.7 330.01 109.46C330.34 109.22 330.5 108.93 330.5 108.57C330.5 108.19 330.28 107.85 329.83 107.54C329.38 107.24 328.6 106.96 327.47 106.7C325.88 106.32 324.65 105.7 323.77 104.86C322.89 104.01 322.45 102.99 322.45 101.77C322.45 100.37 323 99.22 324.11 98.32C325.22 97.43 326.72 96.98 328.62 96.98C330.65 96.98 332.19 97.46 333.23 98.42V98.44Z" fill="#1D3557"/>
</g>
<g clip-path="url(#clip8_298_853)">
<path d="M405.6 1H387.36C385.23 1 383.48 2.74 383.48 4.88V16H369.3C367.38 16 365.8 17.57 365.8 19.5V37.06C365.8 39.7 367.96 41.86 370.6 41.86H378.94V33.7C378.94 31.5 380.72 29.72 382.92 29.72H405.98C407.9 29.72 409.48 28.15 409.48 26.22V4.88C409.48 2.75 407.74 1 405.6 1Z" stroke="#1D3557" stroke-width="2" stroke-miterlimit="10"/>
<path d="M383.49 15.99H396.88" stroke="#1D3557" stroke-width="2" stroke-linecap="round" stroke-linejoin="round"/>
<path d="M404.89 44.05H392.25" stroke="#1D3557" stroke-width="2" stroke-linecap="round" stroke-linejoin="round"/>
<path d="M397.73 52.03C398.277 52.03 398.72 51.5868 398.72 51.0401C398.72 50.4933 398.277 50.05 397.73 50.05C397.183 50.05 396.74 50.4933 396.74 51.0401C396.74 51.5868 397.183 52.03 397.73 52.03Z" fill="#1D3557" stroke="#1D3557" stroke-width="1.46" stroke-miterlimit="10"/>
<path d="M390.77 9.51003C391.317 9.51003 391.76 9.06679 391.76 8.52003C391.76 7.97327 391.317 7.53003 390.77 7.53003C390.223 7.53003 389.78 7.97327 389.78 8.52003C389.78 9.06679 390.223 9.51003 390.77 9.51003Z" fill="#1D3557" stroke="#1D3557" stroke-width="1.46" stroke-miterlimit="10"/>
<path d="M417.27 18.02H409.48V26.19C409.48 28.14 407.9 29.73 405.94 29.73H392H382.82C380.69 29.73 378.94 31.47 378.94 33.61V53.83C378.94 55.96 380.68 57.7 382.81 57.7H401.01C403.14 57.7 404.89 55.96 404.89 53.82V44.05H417.27C420.47 44.05 423.08 41.43 423.08 38.24V23.84C423.08 20.64 420.46 18.03 417.27 18.03V18.02Z" stroke="#1D3557" stroke-width="2" stroke-linecap="round" stroke-linejoin="round"/>
</g>
<g clip-path="url(#clip9_298_853)">
<path d="M1.09003 1H52.15L47.75 48.98L26.32 57.69L5.41003 48.99L1.09003 1Z" stroke="#1D3557" stroke-width="2" stroke-miterlimit="10"/>
<path d="M41.8801 13.02H11.3701L12.7601 25.3H38.5701L36.7901 41.28L26.6201 45.24L15.2001 41.21L14.3401 34.54" stroke="#1D3557" stroke-width="2" stroke-linecap="round" stroke-linejoin="round"/>
</g>
<g clip-path="url(#clip10_298_853)">
<path d="M69.34 1H120.4L116 48.98L94.57 57.69L73.66 48.99L69.34 1Z" stroke="#1D3557" stroke-width="2" stroke-miterlimit="10"/>
<path d="M80.02 13.02H109.73L105.64 41.01L94.87 45.24L84.11 41.41L82.92 34.28" stroke="#1D3557" stroke-width="2" stroke-linecap="round" stroke-linejoin="round"/>
<path d="M81.07 25.5601H107.78" stroke="#1D3557" stroke-width="2" stroke-linecap="round" stroke-linejoin="round"/>
</g>
<g clip-path="url(#clip11_298_853)">
<path d="M140.59 1H191.65L187.25 48.98L165.82 57.69L144.91 48.99L140.59 1Z" stroke="#1D3557" stroke-width="2" stroke-miterlimit="10"/>
<path d="M162.84 10.24V45.77L152.42 44.05V36.65" stroke="#1D3557" stroke-width="2" stroke-linecap="round" stroke-linejoin="round"/>
<path d="M183.03 10.24H169.55V29.13H180.32L179.44 43.71L169.55 45.24" stroke="#1D3557" stroke-width="2" stroke-linecap="round" stroke-linejoin="round"/>
</g>
<g clip-path="url(#clip12_298_853)">
<path d="M39.82 74.77H14.25C11.9028 74.77 10 76.6728 10 79.02V127.21C10 129.557 11.9028 131.46 14.25 131.46H39.82C42.1672 131.46 44.07 129.557 44.07 127.21V79.02C44.07 76.6728 42.1672 74.77 39.82 74.77Z" stroke="#1D3557" stroke-width="2" stroke-linejoin="round"/>
<path d="M21.61 126.37H32.47" stroke="#1D3557" stroke-width="2" stroke-linecap="round" stroke-linejoin="round"/>
<path d="M14.96 101.47V99.5299C17.81 97.9199 20.64 96.5399 23.49 95.1499V97.2399C21.21 98.3499 18.92 99.4299 16.76 100.5C18.92 101.56 21.22 102.67 23.49 103.78V105.87C20.64 104.47 17.81 103.09 14.96 101.49V101.47Z" fill="#1D3557"/>
<path d="M27.98 92.24H29.91L26.85 108.53H24.92L27.98 92.24Z" fill="#1D3557"/>
<path d="M38.08 100.49C35.92 99.4301 33.62 98.3401 31.35 97.2301V95.1401C34.2 96.5401 37.03 97.9201 39.88 99.5201V101.46C37.03 103.07 34.2 104.45 31.35 105.84V103.75C33.63 102.64 35.92 101.54 38.08 100.47V100.49Z" fill="#1D3557"/>
<path d="M27.04 80.0201C27.9678 80.0201 28.72 79.3127 28.72 78.4401C28.72 77.5675 27.9678 76.8601 27.04 76.8601C26.1121 76.8601 25.36 77.5675 25.36 78.4401C25.36 79.3127 26.1121 80.0201 27.04 80.0201Z" fill="#1D3557"/>
</g>
</g>
<defs>
<clipPath id="clip0_298_853">
<rect width="424" height="132" fill="white"/>
</clipPath>
<clipPath id="clip1_298_853">
<rect width="66" height="58.69" fill="white" transform="translate(210.19)"/>
</clipPath>
<clipPath id="clip2_298_853">
<rect width="57.53" height="58.69" fill="white" transform="translate(292.11)"/>
</clipPath>
<clipPath id="clip3_298_853">
<rect width="64.29" height="58.69" fill="white" transform="translate(211.19 73.6899)"/>
</clipPath>
<clipPath id="clip4_298_853">
<rect width="41.35" height="58.69" fill="white" transform="translate(74.25 73.77)"/>
</clipPath>
<clipPath id="clip5_298_853">
<rect width="58.69" height="58.69" fill="white" transform="translate(364.8 73.6899)"/>
</clipPath>
<clipPath id="clip6_298_853">
<rect width="58.69" height="58.69" fill="white" transform="translate(136.5 73.77)"/>
</clipPath>
<clipPath id="clip7_298_853">
<rect width="58.69" height="58.69" fill="white" transform="translate(291.11 73.6899)"/>
</clipPath>
<clipPath id="clip8_298_853">
<rect width="59.28" height="58.69" fill="white" transform="translate(364.8)"/>
</clipPath>
<clipPath id="clip9_298_853">
<rect width="53.25" height="58.77" fill="white"/>
</clipPath>
<clipPath id="clip10_298_853">
<rect width="53.25" height="58.77" fill="white" transform="translate(68.25)"/>
</clipPath>
<clipPath id="clip11_298_853">
<rect width="53.25" height="58.77" fill="white" transform="translate(139.5)"/>
</clipPath>
<clipPath id="clip12_298_853">
<rect width="36.07" height="58.69" fill="white" transform="translate(9 73.77)"/>
</clipPath>
</defs>
</svg>
